<mxfile host="app.diagrams.net" modified="2024-03-06T01:06:27.345Z" agent="Mozilla/5.0 (Windows NT 10.0; Win64; x64) AppleWebKit/537.36 (KHTML, like Gecko) Chrome/122.0.0.0 Safari/537.36 Edg/122.0.0.0" version="23.1.8" etag="2KDnStP8zTF8DfYpe1uS" type="github">
  <diagram name="第 1 页" id="Y1SG-5horvu_iV09ee-s">
    <mxGraphModel>
      <root>
        <mxCell id="0" />
        <mxCell id="1" parent="0" />
      </root>
    </mxGraphModel>
  </diagram>
</mxfile>
